<mxfile host="65bd71144e" pages="5">
    <diagram name="Page-1" id="N42-MRPZ8nZKibhJu02s">
        <mxGraphModel dx="2970" dy="2321" grid="1" gridSize="10" guides="1" tooltips="1" connect="1" arrows="1" fold="1" page="0" pageScale="1" pageWidth="827" pageHeight="1169" background="none" math="0" shadow="1">
            <root>
                <mxCell id="0"/>
                <mxCell id="1" parent="0"/>
                <mxCell id="UjmcnbU4Awc33Cq16Fgs-17" value="VPS" style="swimlane;whiteSpace=wrap;html=1;sketch=1;hachureGap=4;jiggle=2;curveFitting=1;fontFamily=Architects Daughter;fontSource=https%3A%2F%2Ffonts.googleapis.com%2Fcss%3Ffamily%3DArchitects%2BDaughter;fontSize=20;startSize=20;rounded=1;labelBackgroundColor=none;" parent="1" vertex="1">
                    <mxGeometry x="400" y="-220" width="280" height="160" as="geometry"/>
                </mxCell>
                <mxCell id="UjmcnbU4Awc33Cq16Fgs-37" value="webserver" style="whiteSpace=wrap;html=1;sketch=1;hachureGap=4;jiggle=2;curveFitting=1;fontFamily=Architects Daughter;fontSource=https%3A%2F%2Ffonts.googleapis.com%2Fcss%3Ffamily%3DArchitects%2BDaughter;fontSize=20;" parent="UjmcnbU4Awc33Cq16Fgs-17" vertex="1">
                    <mxGeometry x="80" y="50" width="120" height="60" as="geometry"/>
                </mxCell>
                <mxCell id="UjmcnbU4Awc33Cq16Fgs-18" value="Tailscale tunnel" style="swimlane;whiteSpace=wrap;html=1;sketch=1;hachureGap=4;jiggle=2;curveFitting=1;fontFamily=Architects Daughter;fontSource=https%3A%2F%2Ffonts.googleapis.com%2Fcss%3Ffamily%3DArchitects%2BDaughter;fontSize=20;rounded=1;labelBackgroundColor=none;" parent="1" vertex="1">
                    <mxGeometry x="-600" y="180" width="480" height="130" as="geometry">
                        <mxRectangle x="-680" y="-160" width="200" height="40" as="alternateBounds"/>
                    </mxGeometry>
                </mxCell>
                <mxCell id="UjmcnbU4Awc33Cq16Fgs-60" value="pfSense" style="whiteSpace=wrap;html=1;sketch=1;hachureGap=4;jiggle=2;curveFitting=1;fontFamily=Architects Daughter;fontSource=https%3A%2F%2Ffonts.googleapis.com%2Fcss%3Ffamily%3DArchitects%2BDaughter;fontSize=20;" parent="UjmcnbU4Awc33Cq16Fgs-18" vertex="1">
                    <mxGeometry x="170" y="40" width="120" height="60" as="geometry"/>
                </mxCell>
                <mxCell id="UjmcnbU4Awc33Cq16Fgs-66" value="jumpserver" style="whiteSpace=wrap;html=1;sketch=1;hachureGap=4;jiggle=2;curveFitting=1;fontFamily=Architects Daughter;fontSource=https%3A%2F%2Ffonts.googleapis.com%2Fcss%3Ffamily%3DArchitects%2BDaughter;fontSize=20;" parent="UjmcnbU4Awc33Cq16Fgs-18" vertex="1">
                    <mxGeometry x="320" y="40" width="120" height="60" as="geometry"/>
                </mxCell>
                <mxCell id="hwGGNRfFy_vDMTDyMSZX-8" value="Main PC" style="whiteSpace=wrap;html=1;sketch=1;hachureGap=4;jiggle=2;curveFitting=1;fontFamily=Architects Daughter;fontSource=https%3A%2F%2Ffonts.googleapis.com%2Fcss%3Ffamily%3DArchitects%2BDaughter;fontSize=20;" parent="UjmcnbU4Awc33Cq16Fgs-18" vertex="1">
                    <mxGeometry x="30" y="40" width="120" height="60" as="geometry"/>
                </mxCell>
                <mxCell id="UjmcnbU4Awc33Cq16Fgs-24" value="" style="edgeStyle=none;curved=1;sketch=1;hachureGap=4;jiggle=2;curveFitting=1;orthogonalLoop=1;jettySize=auto;exitX=0.875;exitY=0.5;exitDx=0;exitDy=0;exitPerimeter=0;entryX=0;entryY=0.5;entryDx=0;entryDy=0;fontFamily=Architects Daughter;fontSource=https%3A%2F%2Ffonts.googleapis.com%2Fcss%3Ffamily%3DArchitects%2BDaughter;fontSize=16;endArrow=open;startSize=14;endSize=14;sourcePerimeterSpacing=8;targetPerimeterSpacing=8;labelBackgroundColor=none;fontColor=default;labelBorderColor=none;html=1;" parent="1" source="UjmcnbU4Awc33Cq16Fgs-19" target="UjmcnbU4Awc33Cq16Fgs-17" edge="1">
                    <mxGeometry relative="1" as="geometry">
                        <Array as="points">
                            <mxPoint x="260"/>
                        </Array>
                    </mxGeometry>
                </mxCell>
                <mxCell id="UjmcnbU4Awc33Cq16Fgs-27" value="" style="edgeStyle=none;curved=1;sketch=1;hachureGap=4;jiggle=2;curveFitting=1;orthogonalLoop=1;jettySize=auto;html=1;fontFamily=Architects Daughter;fontSource=https%3A%2F%2Ffonts.googleapis.com%2Fcss%3Ffamily%3DArchitects%2BDaughter;fontSize=16;endArrow=open;startSize=14;endSize=14;sourcePerimeterSpacing=8;targetPerimeterSpacing=8;entryX=0.625;entryY=0.2;entryDx=0;entryDy=0;entryPerimeter=0;exitX=0.55;exitY=0.95;exitDx=0;exitDy=0;exitPerimeter=0;labelBackgroundColor=none;fontColor=default;" parent="1" source="UjmcnbU4Awc33Cq16Fgs-26" target="UjmcnbU4Awc33Cq16Fgs-19" edge="1">
                    <mxGeometry relative="1" as="geometry">
                        <Array as="points">
                            <mxPoint x="180" y="-110"/>
                        </Array>
                    </mxGeometry>
                </mxCell>
                <mxCell id="UjmcnbU4Awc33Cq16Fgs-69" style="edgeStyle=none;curved=1;rounded=0;sketch=1;hachureGap=4;jiggle=2;curveFitting=1;orthogonalLoop=1;jettySize=auto;html=1;exitX=0.13;exitY=0.77;exitDx=0;exitDy=0;exitPerimeter=0;entryX=1;entryY=0.5;entryDx=0;entryDy=0;fontFamily=Architects Daughter;fontSource=https%3A%2F%2Ffonts.googleapis.com%2Fcss%3Ffamily%3DArchitects%2BDaughter;fontSize=16;endArrow=open;startSize=14;endSize=14;sourcePerimeterSpacing=8;targetPerimeterSpacing=8;" parent="1" source="UjmcnbU4Awc33Cq16Fgs-19" target="UjmcnbU4Awc33Cq16Fgs-18" edge="1">
                    <mxGeometry relative="1" as="geometry">
                        <Array as="points">
                            <mxPoint x="-70" y="140"/>
                        </Array>
                    </mxGeometry>
                </mxCell>
                <mxCell id="YTpOFUXd6VXehkOOgKQm-1" style="edgeStyle=none;sketch=1;hachureGap=4;jiggle=2;curveFitting=1;html=1;exitX=0.07;exitY=0.4;exitDx=0;exitDy=0;exitPerimeter=0;fontFamily=Architects Daughter;fontSource=https%3A%2F%2Ffonts.googleapis.com%2Fcss%3Ffamily%3DArchitects%2BDaughter;fontSize=16;entryX=1;entryY=1;entryDx=0;entryDy=0;" parent="1" source="UjmcnbU4Awc33Cq16Fgs-19" target="xzMd261P3SGYmYvxheU5-1" edge="1">
                    <mxGeometry relative="1" as="geometry">
                        <mxPoint x="-400" y="-320" as="targetPoint"/>
                        <Array as="points"/>
                    </mxGeometry>
                </mxCell>
                <mxCell id="UjmcnbU4Awc33Cq16Fgs-19" value="internet" style="ellipse;shape=cloud;whiteSpace=wrap;html=1;sketch=1;hachureGap=4;jiggle=2;curveFitting=1;fontFamily=Architects Daughter;fontSource=https%3A%2F%2Ffonts.googleapis.com%2Fcss%3Ffamily%3DArchitects%2BDaughter;fontSize=20;rounded=1;labelBackgroundColor=none;" parent="1" vertex="1">
                    <mxGeometry width="120" height="80" as="geometry"/>
                </mxCell>
                <mxCell id="UjmcnbU4Awc33Cq16Fgs-26" value="remote user" style="ellipse;shape=cloud;whiteSpace=wrap;html=1;sketch=1;hachureGap=4;jiggle=2;curveFitting=1;fontFamily=Architects Daughter;fontSource=https%3A%2F%2Ffonts.googleapis.com%2Fcss%3Ffamily%3DArchitects%2BDaughter;fontSize=20;rounded=1;labelBackgroundColor=none;" parent="1" vertex="1">
                    <mxGeometry y="-200" width="120" height="80" as="geometry"/>
                </mxCell>
                <mxCell id="xzMd261P3SGYmYvxheU5-1" value="Cloudflare DNS" style="swimlane;whiteSpace=wrap;html=1;sketch=1;hachureGap=4;jiggle=2;curveFitting=1;fontFamily=Architects Daughter;fontSource=https%3A%2F%2Ffonts.googleapis.com%2Fcss%3Ffamily%3DArchitects%2BDaughter;fontSize=20;rounded=1;labelBackgroundColor=none;" parent="1" vertex="1">
                    <mxGeometry x="-430" y="-300" width="330" height="300" as="geometry"/>
                </mxCell>
                <mxCell id="xzMd261P3SGYmYvxheU5-7" value="jumpserver" style="whiteSpace=wrap;html=1;sketch=1;hachureGap=4;jiggle=2;curveFitting=1;fontFamily=Architects Daughter;fontSource=https%3A%2F%2Ffonts.googleapis.com%2Fcss%3Ffamily%3DArchitects%2BDaughter;fontSize=20;" parent="xzMd261P3SGYmYvxheU5-1" vertex="1">
                    <mxGeometry x="30" y="50" width="120" height="60" as="geometry"/>
                </mxCell>
                <mxCell id="UjmcnbU4Awc33Cq16Fgs-35" value="public uptime-kuma" style="whiteSpace=wrap;html=1;sketch=1;hachureGap=4;jiggle=2;curveFitting=1;fontFamily=Architects Daughter;fontSource=https%3A%2F%2Ffonts.googleapis.com%2Fcss%3Ffamily%3DArchitects%2BDaughter;fontSize=20;" parent="xzMd261P3SGYmYvxheU5-1" vertex="1">
                    <mxGeometry x="30" y="130" width="120" height="60" as="geometry"/>
                </mxCell>
                <mxCell id="UjmcnbU4Awc33Cq16Fgs-38" value="bitwarden" style="whiteSpace=wrap;html=1;sketch=1;hachureGap=4;jiggle=2;curveFitting=1;fontFamily=Architects Daughter;fontSource=https%3A%2F%2Ffonts.googleapis.com%2Fcss%3Ffamily%3DArchitects%2BDaughter;fontSize=20;" parent="xzMd261P3SGYmYvxheU5-1" vertex="1">
                    <mxGeometry x="30" y="210" width="120" height="60" as="geometry"/>
                </mxCell>
                <mxCell id="UjmcnbU4Awc33Cq16Fgs-40" value="media&lt;br&gt;jellyfin/emby" style="whiteSpace=wrap;html=1;sketch=1;hachureGap=4;jiggle=2;curveFitting=1;fontFamily=Architects Daughter;fontSource=https%3A%2F%2Ffonts.googleapis.com%2Fcss%3Ffamily%3DArchitects%2BDaughter;fontSize=20;" parent="xzMd261P3SGYmYvxheU5-1" vertex="1">
                    <mxGeometry x="180" y="130" width="120" height="60" as="geometry"/>
                </mxCell>
                <mxCell id="UjmcnbU4Awc33Cq16Fgs-61" value="request&lt;br&gt;jellyseerr" style="whiteSpace=wrap;html=1;sketch=1;hachureGap=4;jiggle=2;curveFitting=1;fontFamily=Architects Daughter;fontSource=https%3A%2F%2Ffonts.googleapis.com%2Fcss%3Ffamily%3DArchitects%2BDaughter;fontSize=20;" parent="xzMd261P3SGYmYvxheU5-1" vertex="1">
                    <mxGeometry x="180" y="210" width="120" height="60" as="geometry"/>
                </mxCell>
                <mxCell id="hwGGNRfFy_vDMTDyMSZX-7" value="ssh" style="whiteSpace=wrap;html=1;sketch=1;hachureGap=4;jiggle=2;curveFitting=1;fontFamily=Architects Daughter;fontSource=https%3A%2F%2Ffonts.googleapis.com%2Fcss%3Ffamily%3DArchitects%2BDaughter;fontSize=20;" parent="xzMd261P3SGYmYvxheU5-1" vertex="1">
                    <mxGeometry x="180" y="50" width="120" height="60" as="geometry"/>
                </mxCell>
                <mxCell id="hwGGNRfFy_vDMTDyMSZX-1" value="Cloudflare forward *.fidrat.xyz to my FW that have 443 open this redirected to my reverse proxy that redirect base on the url ex draw.fidrat.xyz" style="text;html=1;align=center;verticalAlign=middle;resizable=0;points=[];autosize=1;strokeColor=none;fillColor=none;fontSize=20;fontFamily=Architects Daughter;sketch=1;hachureGap=4;jiggle=2;curveFitting=1;fontSource=https%3A%2F%2Ffonts.googleapis.com%2Fcss%3Ffamily%3DArchitects%2BDaughter;" parent="1" vertex="1">
                    <mxGeometry x="-1010" y="-1090" width="1420" height="40" as="geometry"/>
                </mxCell>
                <mxCell id="hwGGNRfFy_vDMTDyMSZX-2" value="remote request to draw.fidrat.xyz" style="whiteSpace=wrap;html=1;sketch=1;hachureGap=4;jiggle=2;curveFitting=1;fontFamily=Architects Daughter;fontSource=https%3A%2F%2Ffonts.googleapis.com%2Fcss%3Ffamily%3DArchitects%2BDaughter;fontSize=20;" parent="1" vertex="1">
                    <mxGeometry x="-1020" y="-1030" width="120" height="60" as="geometry"/>
                </mxCell>
                <mxCell id="hwGGNRfFy_vDMTDyMSZX-3" value="cloudflare dns intercept" style="whiteSpace=wrap;html=1;sketch=1;hachureGap=4;jiggle=2;curveFitting=1;fontFamily=Architects Daughter;fontSource=https%3A%2F%2Ffonts.googleapis.com%2Fcss%3Ffamily%3DArchitects%2BDaughter;fontSize=20;" parent="1" vertex="1">
                    <mxGeometry x="-850" y="-1030" width="120" height="60" as="geometry"/>
                </mxCell>
                <mxCell id="hwGGNRfFy_vDMTDyMSZX-4" value="direct that to my IP" style="whiteSpace=wrap;html=1;sketch=1;hachureGap=4;jiggle=2;curveFitting=1;fontFamily=Architects Daughter;fontSource=https%3A%2F%2Ffonts.googleapis.com%2Fcss%3Ffamily%3DArchitects%2BDaughter;fontSize=20;" parent="1" vertex="1">
                    <mxGeometry x="-710" y="-1020" width="120" height="60" as="geometry"/>
                </mxCell>
                <mxCell id="hwGGNRfFy_vDMTDyMSZX-5" value="if valide FW forward the request to reverse proxy" style="whiteSpace=wrap;html=1;sketch=1;hachureGap=4;jiggle=2;curveFitting=1;fontFamily=Architects Daughter;fontSource=https%3A%2F%2Ffonts.googleapis.com%2Fcss%3Ffamily%3DArchitects%2BDaughter;fontSize=20;" parent="1" vertex="1">
                    <mxGeometry x="-540" y="-1020" width="120" height="60" as="geometry"/>
                </mxCell>
                <mxCell id="hwGGNRfFy_vDMTDyMSZX-6" value="connection is made&lt;br&gt;" style="whiteSpace=wrap;html=1;sketch=1;hachureGap=4;jiggle=2;curveFitting=1;fontFamily=Architects Daughter;fontSource=https%3A%2F%2Ffonts.googleapis.com%2Fcss%3Ffamily%3DArchitects%2BDaughter;fontSize=20;" parent="1" vertex="1">
                    <mxGeometry x="-390" y="-1010" width="120" height="60" as="geometry"/>
                </mxCell>
            </root>
        </mxGraphModel>
    </diagram>
    <diagram id="qau6PNjzsdzwrKigkyMW" name="Page-2">
        <mxGraphModel dx="2882" dy="1719" grid="1" gridSize="10" guides="1" tooltips="1" connect="1" arrows="1" fold="1" page="0" pageScale="1" pageWidth="827" pageHeight="1169" math="0" shadow="0">
            <root>
                <mxCell id="0"/>
                <mxCell id="1" parent="0"/>
                <mxCell id="2FqbIpTGzNarROJcbkAl-2" value="Actor" style="shape=umlActor;verticalLabelPosition=bottom;verticalAlign=top;html=1;outlineConnect=0;sketch=1;hachureGap=4;jiggle=2;curveFitting=1;fontFamily=Architects Daughter;fontSource=https%3A%2F%2Ffonts.googleapis.com%2Fcss%3Ffamily%3DArchitects%2BDaughter;fontSize=20;" parent="1" vertex="1">
                    <mxGeometry x="830" y="-130" width="30" height="60" as="geometry"/>
                </mxCell>
                <mxCell id="2FqbIpTGzNarROJcbkAl-14" style="edgeStyle=none;curved=1;rounded=0;sketch=1;hachureGap=4;jiggle=2;curveFitting=1;orthogonalLoop=1;jettySize=auto;html=1;exitX=0.07;exitY=0.4;exitDx=0;exitDy=0;exitPerimeter=0;entryX=1;entryY=0.25;entryDx=0;entryDy=0;fontFamily=Architects Daughter;fontSource=https%3A%2F%2Ffonts.googleapis.com%2Fcss%3Ffamily%3DArchitects%2BDaughter;fontSize=16;endArrow=open;startSize=14;endSize=14;sourcePerimeterSpacing=8;targetPerimeterSpacing=8;" parent="1" source="2FqbIpTGzNarROJcbkAl-3" target="2FqbIpTGzNarROJcbkAl-17" edge="1">
                    <mxGeometry relative="1" as="geometry"/>
                </mxCell>
                <mxCell id="2FqbIpTGzNarROJcbkAl-16" value="Public IP.:80 or 443" style="edgeLabel;html=1;align=center;verticalAlign=middle;resizable=0;points=[];fontSize=20;fontFamily=Architects Daughter;" parent="2FqbIpTGzNarROJcbkAl-14" vertex="1" connectable="0">
                    <mxGeometry x="-0.3553" y="-7" relative="1" as="geometry">
                        <mxPoint x="-42" y="-13" as="offset"/>
                    </mxGeometry>
                </mxCell>
                <mxCell id="2FqbIpTGzNarROJcbkAl-3" value="2. cloudflare ofucate the ip &lt;br&gt;and proxy the request &lt;br&gt;to the appropriate record &lt;br&gt;while encrypting the connnection &lt;br&gt;with a edge ssl/tls certificate hence acting as a reverse proxy. advantage resolving ip, provide ddos protection and ofucate ip and also has the ability to tunnel traffic with auth" style="ellipse;shape=cloud;whiteSpace=wrap;html=1;sketch=1;hachureGap=4;jiggle=2;curveFitting=1;fontFamily=Architects Daughter;fontSource=https%3A%2F%2Ffonts.googleapis.com%2Fcss%3Ffamily%3DArchitects%2BDaughter;fontSize=20;" parent="1" vertex="1">
                    <mxGeometry x="40" y="-400" width="560" height="360" as="geometry"/>
                </mxCell>
                <mxCell id="2FqbIpTGzNarROJcbkAl-4" value="" style="shape=flexArrow;endArrow=classic;startArrow=classic;html=1;rounded=0;sketch=1;hachureGap=4;jiggle=2;curveFitting=1;fontFamily=Architects Daughter;fontSource=https%3A%2F%2Ffonts.googleapis.com%2Fcss%3Ffamily%3DArchitects%2BDaughter;fontSize=16;startSize=14;endSize=14;sourcePerimeterSpacing=8;targetPerimeterSpacing=8;curved=1;" parent="1" edge="1">
                    <mxGeometry width="100" height="100" relative="1" as="geometry">
                        <mxPoint x="460" y="250" as="sourcePoint"/>
                        <mxPoint x="710" y="230" as="targetPoint"/>
                        <Array as="points">
                            <mxPoint x="570" y="230"/>
                        </Array>
                    </mxGeometry>
                </mxCell>
                <mxCell id="2FqbIpTGzNarROJcbkAl-5" value="edge encryption &lt;br&gt;and ip ofuscation&lt;br&gt;&amp;nbsp;by cloudflare" style="edgeLabel;html=1;align=center;verticalAlign=middle;resizable=0;points=[];fontSize=20;fontFamily=Architects Daughter;" parent="2FqbIpTGzNarROJcbkAl-4" vertex="1" connectable="0">
                    <mxGeometry x="-0.1033" y="-4" relative="1" as="geometry">
                        <mxPoint x="9" y="-74" as="offset"/>
                    </mxGeometry>
                </mxCell>
                <mxCell id="2FqbIpTGzNarROJcbkAl-10" value="" style="endArrow=classic;html=1;rounded=0;sketch=1;hachureGap=4;jiggle=2;curveFitting=1;fontFamily=Architects Daughter;fontSource=https%3A%2F%2Ffonts.googleapis.com%2Fcss%3Ffamily%3DArchitects%2BDaughter;fontSize=16;startSize=14;endSize=14;sourcePerimeterSpacing=8;targetPerimeterSpacing=8;curved=1;exitX=0.5;exitY=0;exitDx=0;exitDy=0;exitPerimeter=0;entryX=0.88;entryY=0.25;entryDx=0;entryDy=0;entryPerimeter=0;" parent="1" source="2FqbIpTGzNarROJcbkAl-2" target="2FqbIpTGzNarROJcbkAl-3" edge="1">
                    <mxGeometry width="50" height="50" relative="1" as="geometry">
                        <mxPoint x="812.2" y="-140" as="sourcePoint"/>
                        <mxPoint x="500.00000000000017" y="-320" as="targetPoint"/>
                    </mxGeometry>
                </mxCell>
                <mxCell id="2FqbIpTGzNarROJcbkAl-12" value="1.&lt;br&gt;ask for website.xyz" style="edgeLabel;html=1;align=center;verticalAlign=middle;resizable=0;points=[];fontSize=20;fontFamily=Architects Daughter;" parent="2FqbIpTGzNarROJcbkAl-10" vertex="1" connectable="0">
                    <mxGeometry x="0.1304" y="4" relative="1" as="geometry">
                        <mxPoint x="124" y="48" as="offset"/>
                    </mxGeometry>
                </mxCell>
                <mxCell id="2FqbIpTGzNarROJcbkAl-13" value="Home" style="swimlane;whiteSpace=wrap;html=1;sketch=1;hachureGap=4;jiggle=2;curveFitting=1;fontFamily=Architects Daughter;fontSource=https%3A%2F%2Ffonts.googleapis.com%2Fcss%3Ffamily%3DArchitects%2BDaughter;fontSize=20;startSize=23;" parent="1" vertex="1">
                    <mxGeometry x="-650" y="-360" width="460" height="405" as="geometry"/>
                </mxCell>
                <mxCell id="2FqbIpTGzNarROJcbkAl-21" value="" style="edgeStyle=none;curved=1;rounded=0;sketch=1;hachureGap=4;jiggle=2;curveFitting=1;orthogonalLoop=1;jettySize=auto;html=1;fontFamily=Architects Daughter;fontSource=https%3A%2F%2Ffonts.googleapis.com%2Fcss%3Ffamily%3DArchitects%2BDaughter;fontSize=16;endArrow=open;startSize=14;endSize=14;sourcePerimeterSpacing=8;targetPerimeterSpacing=8;" parent="2FqbIpTGzNarROJcbkAl-13" source="2FqbIpTGzNarROJcbkAl-15" target="2FqbIpTGzNarROJcbkAl-20" edge="1">
                    <mxGeometry relative="1" as="geometry"/>
                </mxCell>
                <mxCell id="2FqbIpTGzNarROJcbkAl-22" value="unencryted" style="edgeLabel;html=1;align=center;verticalAlign=middle;resizable=0;points=[];fontSize=20;fontFamily=Architects Daughter;" parent="2FqbIpTGzNarROJcbkAl-21" vertex="1" connectable="0">
                    <mxGeometry x="-0.4347" y="3" relative="1" as="geometry">
                        <mxPoint y="-1" as="offset"/>
                    </mxGeometry>
                </mxCell>
                <mxCell id="2FqbIpTGzNarROJcbkAl-15" value="reverse proxy foward traffic base on request. add a wildcard ssl cert with dns challenge" style="whiteSpace=wrap;html=1;sketch=1;hachureGap=4;jiggle=2;curveFitting=1;fontFamily=Architects Daughter;fontSource=https%3A%2F%2Ffonts.googleapis.com%2Fcss%3Ffamily%3DArchitects%2BDaughter;fontSize=20;" parent="2FqbIpTGzNarROJcbkAl-13" vertex="1">
                    <mxGeometry x="20" y="30" width="190" height="190" as="geometry"/>
                </mxCell>
                <mxCell id="2FqbIpTGzNarROJcbkAl-20" value="webserver&lt;br&gt;" style="whiteSpace=wrap;html=1;fontSize=20;fontFamily=Architects Daughter;sketch=1;hachureGap=4;jiggle=2;curveFitting=1;fontSource=https%3A%2F%2Ffonts.googleapis.com%2Fcss%3Ffamily%3DArchitects%2BDaughter;" parent="2FqbIpTGzNarROJcbkAl-13" vertex="1">
                    <mxGeometry x="35" y="290" width="120" height="60" as="geometry"/>
                </mxCell>
                <mxCell id="2FqbIpTGzNarROJcbkAl-17" value="firewall forward 80/443 traffic to reverse proxy&amp;nbsp;" style="whiteSpace=wrap;html=1;sketch=1;hachureGap=4;jiggle=2;curveFitting=1;fontFamily=Architects Daughter;fontSource=https%3A%2F%2Ffonts.googleapis.com%2Fcss%3Ffamily%3DArchitects%2BDaughter;fontSize=20;" parent="2FqbIpTGzNarROJcbkAl-13" vertex="1">
                    <mxGeometry x="260" y="50" width="170" height="170" as="geometry"/>
                </mxCell>
                <mxCell id="2FqbIpTGzNarROJcbkAl-18" style="edgeStyle=none;curved=1;rounded=0;sketch=1;hachureGap=4;jiggle=2;curveFitting=1;orthogonalLoop=1;jettySize=auto;html=1;exitX=0;exitY=0.25;exitDx=0;exitDy=0;entryX=1;entryY=0.25;entryDx=0;entryDy=0;fontFamily=Architects Daughter;fontSource=https%3A%2F%2Ffonts.googleapis.com%2Fcss%3Ffamily%3DArchitects%2BDaughter;fontSize=16;endArrow=open;startSize=14;endSize=14;sourcePerimeterSpacing=8;targetPerimeterSpacing=8;" parent="2FqbIpTGzNarROJcbkAl-13" source="2FqbIpTGzNarROJcbkAl-17" target="2FqbIpTGzNarROJcbkAl-15" edge="1">
                    <mxGeometry relative="1" as="geometry"/>
                </mxCell>
                <mxCell id="2FqbIpTGzNarROJcbkAl-19" value="VPS" style="swimlane;whiteSpace=wrap;html=1;sketch=1;hachureGap=4;jiggle=2;curveFitting=1;fontFamily=Architects Daughter;fontSource=https%3A%2F%2Ffonts.googleapis.com%2Fcss%3Ffamily%3DArchitects%2BDaughter;fontSize=20;" parent="1" vertex="1">
                    <mxGeometry x="-140" y="150" width="470" height="380" as="geometry"/>
                </mxCell>
            </root>
        </mxGraphModel>
    </diagram>
</mxfile>